<svg xmlns="http://www.w3.org/2000/svg" viewBox="0 0 400 280" role="img" aria-label="GETIT Micro-Learn project">
  <rect width="400" height="280" fill="#ede9fe" rx="16"/>
  <rect x="24" y="24" width="352" height="40" fill="#8b6cf6" rx="8"/>
  <rect x="40" y="38" width="80" height="12" fill="#fff" rx="4" opacity="0.8"/>
  <rect x="24" y="80" width="160" height="176" fill="#fff" rx="12"/>
  <rect x="40" y="100" width="120" height="10" fill="#c4b5fd" rx="4"/>
  <rect x="40" y="120" width="100" height="8" fill="#ddd6fe" rx="4"/>
  <rect x="40" y="140" width="110" height="8" fill="#ddd6fe" rx="4"/>
  <rect x="40" y="180" width="80" height="28" fill="#8b6cf6" rx="6"/>
  <rect x="200" y="80" width="176" height="80" fill="#fff" rx="12"/>
  <rect x="216" y="96" width="140" height="8" fill="#c4b5fd" rx="4"/>
  <rect x="216" y="112" width="120" height="8" fill="#ddd6fe" rx="4"/>
  <rect x="216" y="128" width="100" height="8" fill="#ddd6fe" rx="4"/>
  <rect x="200" y="176" width="176" height="80" fill="#fff" rx="12"/>
  <rect x="216" y="192" width="140" height="8" fill="#c4b5fd" rx="4"/>
  <rect x="216" y="208" width="100" height="8" fill="#ddd6fe" rx="4"/>
</svg>
